<?xml version="1.0" encoding="utf-8"?>
<!-- Generator: Adobe Illustrator 25.2.0, SVG Export Plug-In . SVG Version: 6.00 Build 0)  -->
<svg version="1.1" id="Layer_1" xmlns="http://www.w3.org/2000/svg" xmlns:xlink="http://www.w3.org/1999/xlink" x="0px" y="0px"
	 viewBox="0 0 1500 1500" style="enable-background:new 0 0 1500 1500;" xml:space="preserve">
<style type="text/css">
	.st0{fill:#31CDC9;}
	.st1{fill:#FFFFFF;}
</style>
<rect class="st0" width="1500" height="1500"/>
<g>
	<path class="st1" d="M750.1,600c-91.4,0-162.6,57.2-250,149.9c75.3,79.3,138.4,150.1,250,150.1s193.5-89.6,250-148.4
		C942.3,682.8,860.3,600,750.1,600z M750.1,883.3c-99,0-158.8-61.4-227-133.4c81.2-84.6,145.7-133.3,227-133.3
		c96.3,0,171.6,69.4,227.6,134.3C922.6,808.4,848,883.3,750.1,883.3z"/>
	<path class="st1" d="M750.1,650c-55.1,0-100,44.9-100,100s44.9,100,100,100s100-44.9,100-100S805.3,650,750.1,650z M750.1,833.3
		c-45.9,0-83.3-37.4-83.3-83.3s37.4-83.3,83.3-83.3c45.9,0,83.3,37.4,83.3,83.3C833.4,796,796.1,833.3,750.1,833.3z"/>
	<path class="st1" d="M750.1,691.7c-32.2,0-58.3,26.2-58.3,58.3s26.2,58.3,58.3,58.3c32.2,0,58.3-26.2,58.3-58.3
		C808.4,717.9,782.3,691.7,750.1,691.7z M750.1,791.7c-23,0-41.7-18.7-41.7-41.7s18.7-41.7,41.7-41.7s41.7,18.7,41.7,41.7
		S773.1,791.7,750.1,791.7z"/>
</g>
</svg>
