<svg id="Layer_1" data-name="Layer 1" xmlns="http://www.w3.org/2000/svg" viewBox="0 0 37.62 49.41"><polygon points="33.06 10.5 23.95 3.78 22.65 2.83 20.66 1.36 18.81 0 16.95 1.36 14.96 2.83 13.66 3.78 4.55 10.5 0 13.84 0 19.5 4.55 16.14 13.66 9.44 18.22 6.08 18.81 5.65 19.4 6.08 23.95 9.44 33.06 16.14 37.62 19.5 37.62 13.84 33.06 10.5"/><polygon points="33.06 24.15 37.62 27.5 37.62 21.84 33.06 18.5 23.95 11.78 22.65 10.83 19.4 8.44 19.4 13.21 19.4 14.09 19.4 19.4 19.4 24.17 19.4 25.05 23.95 28.4 33.06 35.11 33.06 40.41 23.95 33.69 22.65 32.74 19.4 30.35 19.4 35.12 19.4 35.99 23.95 39.35 33.06 46.05 37.62 49.41 37.62 43.75 37.62 38.46 37.62 32.8 33.06 29.46 23.95 22.74 23.95 17.44 33.06 24.15"/><polygon points="13.66 28.4 13.66 33.69 4.55 40.41 4.55 35.11 4.55 29.46 4.55 24.15 4.55 18.5 0 21.84 0 27.5 0 32.8 0 38.46 0 43.75 0 49.41 4.55 46.05 13.66 39.35 18.22 35.99 18.22 35.12 18.22 30.35 18.22 25.05 13.66 28.4"/></svg>